<svg xmlns="http://www.w3.org/2000/svg" xmlns:xlink="http://www.w3.org/1999/xlink" viewBox="0 0 1021 251">
  <defs>
    <style>
      .cls-1, .cls-5 {
        fill: #0a3292;
      }

      .cls-1 {
        font-size: 250px;
        font-family: HiraMaruPro-W4, Hiragino Maru Gothic Pro;
      }

      .cls-2, .cls-3, .cls-4 {
        fill: #fff;
      }

      .cls-2, .cls-5 {
        stroke: #0a3292;
        stroke-width: 4px;
      }

      .cls-6, .cls-8 {
        stroke: none;
      }

      .cls-7 {
        fill: none;
      }

      .cls-8 {
        fill: #eb3232;
      }

      .cls-9 {
        filter: url(#Unin_de);
      }
    </style>
    <filter id="Unin_de" x="0" y="0" width="1021" height="251" filterUnits="userSpaceOnUse">
      <feOffset dx="-2" dy="-1" input="SourceAlpha"/>
      <feGaussianBlur result="blur"/>
      <feFlood flood-color="#070927" flood-opacity="0.161"/>
      <feComposite operator="in" in2="blur"/>
      <feComposite in="SourceGraphic"/>
    </filter>
  </defs>
  <g id="uninode-long" transform="translate(-446 -414)">
    <g class="cls-9" transform="matrix(1, 0, 0, 1, 446, 414)">
      <text id="Unin_de-2" data-name="Unin  de" class="cls-1" transform="translate(2 221)"><tspan x="0" y="0" xml:space="preserve">Unin  de</tspan></text>
    </g>
    <g id="Group_1" data-name="Group 1">
      <g id="Ellipse_1" data-name="Ellipse 1" class="cls-2" transform="translate(1008 496)">
        <circle class="cls-6" cx="77.5" cy="77.5" r="77.5"/>
        <circle class="cls-7" cx="77.5" cy="77.5" r="75.5"/>
      </g>
      <g id="Intersection_1" data-name="Intersection 1" class="cls-3" transform="translate(1833.24 516.707)">
        <path class="cls-6" d="M -748.0310668945312 94.69526672363281 L -802.4906005859375 55.59096908569336 L -746.9857177734375 18.42395210266113 L -692.5255126953125 57.52824783325195 L -748.0310668945312 94.69526672363281 Z"/>
        <path class="cls-8" d="M -747.0255126953125 20.85755920410156 L -798.981689453125 55.64832305908203 L -747.9912719726562 92.26164245605469 L -696.0344848632812 57.47089385986328 L -747.0255126953125 20.85755920410156 M -746.9459228515625 15.99033355712891 L -689.0166015625 57.58560562133789 L -748.0708618164062 97.12886047363281 L -805.99951171875 55.53360366821289 L -746.9459228515625 15.99033355712891 Z"/>
      </g>
      <rect id="Rectangle_5" data-name="Rectangle 5" class="cls-4" width="33" height="111" transform="translate(1069 522)"/>
      <path id="Path_1" data-name="Path 1" class="cls-5" d="M22.384-7.556l-20.1,53.23" transform="translate(1073.5 554.5)"/>
    </g>
  </g>
</svg>
