<svg xmlns="http://www.w3.org/2000/svg" viewBox="0 0 1021 251"><defs><style>.cls-6{stroke:none}</style><filter id="Unin_de" x="0" y="0" width="1021" height="251" filterUnits="userSpaceOnUse"><feOffset dx="-2" dy="-1"/><feGaussianBlur result="blur"/><feFlood flood-color="#070927" flood-opacity=".161"/><feComposite operator="in" in2="blur"/><feComposite in="SourceGraphic"/></filter></defs><g id="uninode-long" transform="translate(-446 -414)"><g transform="translate(446 414)" filter="url(#Unin_de)"><text id="Unin_de-2" data-name="Unin de" transform="translate(2 221)" font-size="250" font-family="HiraMaruPro-W4,Hiragino Maru Gothic Pro" fill="#0a3292"><tspan x="0" y="0">Unin de</tspan></text></g><g id="Group_1" data-name="Group 1"><g id="Ellipse_1" data-name="Ellipse 1" transform="translate(1008 496)" stroke="#0a3292" stroke-width="4" fill="#fff"><circle class="cls-6" cx="77.5" cy="77.5" r="77.5"/><circle cx="77.5" cy="77.5" r="75.5" fill="none"/></g><g id="Intersection_1" data-name="Intersection 1" fill="#fff"><path class="cls-6" d="M-748.031 94.695l-54.46-39.104 55.505-37.167 54.46 39.104-55.505 37.167z" transform="translate(1833.24 516.707)"/><path d="M-747.026 20.858l-51.956 34.79 50.99 36.614 51.958-34.791-50.992-36.613m.08-4.868l57.93 41.596-59.055 39.543L-806 55.534l59.054-39.544z" fill="#eb3232" transform="translate(1833.24 516.707)"/></g><path id="Rectangle_5" data-name="Rectangle 5" transform="translate(1069 522)" fill="#fff" d="M0 0h33v111H0z"/><path id="Path_1" data-name="Path 1" d="M1095.884 546.944l-20.1 53.23" stroke="#0a3292" stroke-width="4" fill="#0a3292"/></g></g></svg>