<svg width="1024" height="1024" viewBox="0 0 1024 1024" fill="none" xmlns="http://www.w3.org/2000/svg">
<g clip-path="url(#clip0_80529_8)">
<path d="M682.584 703.323C679.529 703.323 676.415 702.893 673.331 701.974C656.066 696.892 646.164 678.715 651.29 661.45L756.244 305.88C761.347 288.615 779.452 278.685 796.76 283.838C814.04 288.942 823.927 307.097 818.815 324.362L713.861 679.932C709.668 694.143 696.683 703.329 682.582 703.329L682.584 703.323Z" fill="#B40505"/>
<path d="M433.255 741.232C426.803 741.232 420.357 739.329 414.795 735.537C389.333 718.061 260.684 626.07 226.818 529.643C209.466 480.173 213.899 433.116 239.257 397.105C262.784 364.063 302.026 344.406 344.306 344.406C377.093 344.406 407.943 355.708 433.469 376.662C459.038 355.693 490.355 344.02 522.545 344.02C564.724 344.02 603.956 363.742 627.498 396.771C652.98 432.832 657.42 479.984 640.032 529.665C605.165 629.225 467.184 725.014 451.57 735.616C446.051 739.385 439.664 741.237 433.262 741.237L433.255 741.232ZM344.32 409.665C323.111 409.665 303.731 419.085 292.517 434.848C279.714 453.003 278.226 479.054 288.397 508.035C308.339 564.876 381.986 630.503 433.323 668.585C482.843 631.962 558.409 565.388 578.474 508.116C588.688 478.929 587.194 452.798 574.31 434.549C563.06 418.757 543.688 409.286 522.558 409.286C500.553 409.286 478.885 420.018 463.106 438.764L458.374 444.4C452.147 451.727 443.041 455.963 433.446 455.963H433.322C423.662 455.934 414.527 451.618 408.35 444.203L403.742 438.64C387.768 419.756 367.155 409.665 344.32 409.665Z" fill="#B40505"/>
<path d="M155.388 701.419C147.04 701.419 138.684 698.211 132.32 691.846L9.26069 568.759C-3.48403 556.014 -3.48403 535.365 9.26069 522.636L132.34 399.569C145.085 386.817 165.734 386.817 178.464 399.569C191.216 412.299 191.216 432.963 178.464 445.692L78.4671 545.711L178.456 645.723C191.201 658.445 191.201 679.116 178.456 691.838C172.084 698.211 163.735 701.419 155.388 701.419Z" fill="#B40505"/>
<path d="M868.301 701.419C859.953 701.419 851.597 698.211 845.233 691.846C832.488 679.101 832.488 658.452 845.233 645.73L945.244 545.718L845.233 445.7C832.51 432.97 832.51 412.306 845.233 399.561C857.992 386.831 878.627 386.817 891.371 399.569L1014.43 522.635C1027.19 535.365 1027.19 556.021 1014.43 568.759L891.371 691.846C884.991 698.211 876.621 701.419 868.303 701.419L868.301 701.419Z" fill="#B40505"/>
</g>
<defs>
<clipPath id="clip0_80529_8">
<rect width="1024" height="1024" fill="white"/>
</clipPath>
</defs>
</svg>
